<?xml version="1.0" encoding="UTF-8"?>
<svg version="1.2" viewBox="0 0 1024 1024" xmlns="http://www.w3.org/2000/svg" baseProfile="tiny-ps">
	<title>Compact Orb</title>
	<desc>Compact Orb Symbol</desc>
	<path d="m1024 512a512 512 0 01-512 512 512 512 0 01-512-512 512 512 0 01512-512 512 512 0 01512 512z" fill="#000080"/>
	<path d="m874.038672 149.961328-867.5095351 289.1707657a512 512 0 00-2.44449024 121.492546l688.9346893-229.6439757-229.6439757 688.9346893a512 512 0 00121.492546-2.44449024z" fill="#ff0"/>
	<g fill="#fff">
		<path d="m240.470996 240.470996a384 384 0 001e-13 543.058008 384 384 0 00543.058008 0l-90.50966799-90.50966799a256 256 0 01-362.038672 0 256 256 0 010-362.038672z"/>
		<path d="m640 512a128 128 0 01-128 128 128 128 0 01-128-128 128 128 0 01128-128 128 128 0 01128 128z"/>
	</g>
</svg>
