<?xml version="1.0" encoding="UTF-8"?>
<svg version="1.2" viewBox="0 0 6144 1024" xmlns="http://www.w3.org/2000/svg" baseProfile="tiny-ps">
	<title>Compact Orb</title>
	<desc>Compact Orb Logo</desc>
	<path d="m1024 512a512 512 0 01-512 512 512 512 0 01-512-512 512 512 0 01512-512 512 512 0 01512 512z" fill="#000080"/>
	<path d="m874.038672 149.961328-867.5095351 289.1707657a512 512 0 00-2.44449024 121.492546l688.9346893-229.6439757-229.6439757 688.9346893a512 512 0 00121.492546-2.44449024z" fill="#ff0"/>
	<g fill="#fff">
		<path d="m240.470996 240.470996a384 384 0 001e-13 543.058008 384 384 0 00543.058008 0l-90.50966799-90.50966799a256 256 0 01-362.038672 0 256 256 0 010-362.038672z"/>
		<path d="m640 512a128 128 0 01-128 128 128 128 0 01-128-128 128 128 0 01128-128 128 128 0 01128 128z"/>
		<path d="m1555.625 788.375q-79.5 0-136.125-32.25-56.25-32.25-85.875-93.75-29.25-61.875-29.25-148.875 0-88.5 33.75-151.5t98.25-95.625q64.5-33 155.25-33 56.25 0 121.5 16.5l-25.875 91.125q-17.625-6-47.25-9.75-29.25-3.75-53.625-3.75-56.25 0-96.375 21.75-39.75 21.75-60.75 63-20.625 40.875-20.625 98.25 0 57.75 18 99 18.375 41.25 53.25 63 35.25 21.375 84.375 21.375 51.75 0 132-25.875l23.25 91.125q-36.75 14.25-79.875 21.75-42.75 7.5-84 7.5zm428.625 1.875q-60 0-105.75-23.625t-70.875-66.75-25.125-99.75q0-57.75 25.125-101.625t70.875-67.875 105.75-24q60.375 0 106.125 24t70.125 67.875q24.75 43.875 24.375 101.625 0 57-25.125 100.125-24.75 42.75-70.125 66.375t-105.375 23.625zm.75-84.375q29.625 0 52.125-13.125 22.875-13.125 35.625-37.125t13.125-55.5q-.75-31.875-13.875-55.875-12.75-24.375-35.25-37.5-22.5-13.5-51.75-13.5-30.75 0-54.375 13.5-23.25 13.5-36.375 37.875-12.75 24.375-12.75 56.25 0 31.5 12.75 55.5 13.125 23.625 36.375 36.75 23.625 12.75 54.375 12.75zm733.125-300q45.75 0 76.875 18.75 31.5 18.75 46.875 51.75t15.75 75.75v228.75h-99v-211.5q1.125-36-14.625-58.875-15.375-23.25-51.375-23.25-48.375 0-82.875 25.875 3.75 20.625 3.75 39v228.75h-99v-211.5q-.75-36.375-15.75-59.25t-49.5-22.875q-24 0-43.5 9.375-19.125 9.375-36 28.5l-.75 255.75h-99.375l.75-365.25h83.25l12.375 39.375q25.875-25.5 51.75-37.125 26.25-12 61.875-12 34.875 0 60.75 12 26.25 12 43.5 34.125 29.25-21.75 61.5-33.75 32.25-12.375 72.75-12.375zm457.5 0q52.875 0 90.375 21.75 37.875 21.375 57.375 63 19.875 41.25 19.875 99.375 0 61.125-20.625 106.125-20.25 44.625-60.75 69t-98.625 24.375q-45 0-69.75-18.75-24.375-18.75-34.5-50.625v237h-99.75l.75-541.5h82.875l13.875 44.25q19.875-25.875 50.625-39.75 30.75-14.25 68.25-14.25zm-20.25 303.75q39.375 0 61.875-30.75 22.875-31.125 22.875-89.625 0-48.75-24-75.375-23.625-26.625-66.75-26.625-26.25 0-49.875 8.625-23.25 8.625-40.5 24.375v37.5l.375 43.875q0 36.375 13.125 60.75 13.125 24 34.875 35.625t48 11.625zm516 85.875q-18-37.5-27.375-75-7.125 18.75-24.375 34.5t-40.5 25.125q-22.875 9.375-46.5 9.375-38.25 0-68.625-11.625-30-11.625-47.625-36t-17.625-60.75q0-37.875 18.75-65.25 19.125-27.75 54-42.375 34.875-15 81.75-15 42 0 83.625 19.875v-24q0-34.5-18-50.25-18-16.125-52.875-16.125-18.75 0-53.625 4.125-34.5 3.75-64.125 10.125l-10.5-81.75q52.875-7.5 82.875-10.875 30-3.75 50.25-3.75 79.125 0 120 36 41.25 36 41.625 107.25l.75 108q.375 55.125 27.75 113.25zm-117.375-81q24.375 0 43.125-9 19.125-9.375 29.25-25.125 10.5-15.75 10.5-35.25-34.5-10.5-74.25-10.5-31.875 0-50.25 11.625-18.375 11.25-18 31.5 0 16.125 16.5 26.625 16.5 10.125 43.125 10.125zm439.125 75q-57.375 0-99-22.875-41.25-22.875-63-65.625-21.75-43.125-21.75-102 0-58.125 22.125-101.625 22.125-43.875 64.5-67.5 42.75-23.625 102.375-23.25 34.125-.375 67.125 5.625 33.375 5.625 56.25 15.375l-17.625 82.125q-40.875-15.375-84.75-15.375-56.25 0-81.75 25.875-25.125 25.875-25.125 76.875 0 54 27 80.625 27.375 26.25 79.125 26.25 22.125 0 39-3.75 17.25-4.125 44.625-13.125l24.375 79.5q-33 10.875-67.875 16.875-34.5 6-65.625 6zm325.5-151.875q0 27 13.5 46.125 13.5 18.75 45 18.75 15 0 34.125-2.625v87.75q-24 2.25-49.5 2.25-70.875 0-105-29.25-34.125-29.625-34.125-82.125v-186.375h-63.75l.375-76.125h63.375v-131.25h96v131.25q32.625-.375 58.5-.375t34.125 0l-.375 76.125q-8.25 0-34.125 0-25.5 0-58.125.375zm611.25 152.625q-78 0-136.875-34.5-58.5-34.875-90.375-97.5-31.875-63-31.875-144.375 0-82.125 31.875-145.5t90.375-98.625q58.875-35.25 136.875-35.25 79.125 0 138.375 35.25 59.625 35.25 91.5 98.625t31.5 145.5q0 81.375-32.25 144.375-31.875 62.625-91.125 97.5-59.25 34.5-138 34.5zm.75-87.375q46.875 0 81.75-23.25t53.25-65.625q18.75-42.75 18.75-99 0-57.75-18.375-101.25t-53.25-67.5q-34.5-24-82.125-24-46.875 0-81.375 24-34.5 23.625-53.25 67.125-18.375 43.125-18.375 100.5 0 56.625 18.375 99.375 18.75 42.75 53.25 66.375 34.5 23.25 81.375 23.25zm442.125-224.625q33-73.875 99.75-73.875 19.125 0 38.625 5.25l-10.5 96q-10.5-1.125-20.25-1.125-64.5 0-104.25 43.875l-.375 232.5h-99.75l.75-365.25h83.625zm412.5-72.375q51.75 0 89.625 22.875t57.75 64.5q20.25 41.625 20.25 96.75 0 61.125-20.625 106.125-20.25 44.625-60.75 69t-98.625 24.375q-79.875 0-102.75-64.5l-18 55.875h-82.5l-.75-568.5h99.75v245.625q19.5-22.5 49.875-37.125 30.75-15 66.75-15zm-20.25 303.75q39.375 0 61.875-30.75 22.875-31.125 22.875-89.625 0-47.625-24-74.625-23.625-27.375-66.75-27.375-27 0-48.375 8.625-21 8.25-42 26.25v35.625l.375 43.875q0 36.375 13.125 60.75 13.125 24 34.875 35.625t48 11.625z"/>
	</g>
</svg>
